<svg id="Layer_1" data-name="Layer 1" xmlns="http://www.w3.org/2000/svg" viewBox="0 0 232.75 250"><defs><style>.cls-1{fill:#de0252;}.cls-2{fill:#ac1a59;}.cls-3{fill:#fff;}</style></defs><polygon class="cls-1" points="116.38 0 116.38 0 116.38 0 0 41.5 17.75 195.38 116.38 250 116.38 250 116.38 250 215 195.38 232.75 41.5 116.38 0"/><polygon class="cls-2" points="116.38 0 116.38 27.75 116.38 27.63 116.38 154.25 116.38 154.25 116.38 250 116.38 250 215 195.38 232.75 41.5 116.38 0"/><path class="cls-3" d="M160,149.36a.62.62,0,1,0,.62-.62A.62.62,0,0,0,160,149.36Zm-13.47,13.9a1.22,1.22,0,1,0,1.21-1.22A1.21,1.21,0,0,0,146.56,163.26Zm-18.16,7.15a1.83,1.83,0,1,0,1.83-1.82,1.83,1.83,0,0,0-1.83,1.82Zm-19.56-1a2.43,2.43,0,1,0,2.43-2.43A2.43,2.43,0,0,0,108.84,169.45Zm-17.34-8.9a3,3,0,1,0,3-3A3,3,0,0,0,91.5,160.55Zm-12-15.12a3.65,3.65,0,1,0,3.65-3.65A3.65,3.65,0,0,0,79.49,145.43ZM75,126.85a4.26,4.26,0,1,0,4.26-4.26A4.25,4.25,0,0,0,75,126.85Zm3.71-18.47a4.86,4.86,0,1,0,4.86-4.86A4.85,4.85,0,0,0,78.69,108.38ZM89.81,93.5A5.48,5.48,0,1,0,95.29,88,5.47,5.47,0,0,0,89.81,93.5ZM106.16,85a6.07,6.07,0,1,0,6.07-6.08A6.07,6.07,0,0,0,106.16,85Zm18.35-.53a6.69,6.69,0,1,0,6.69-6.69A6.68,6.68,0,0,0,124.51,84.45ZM141.31,92a7.29,7.29,0,1,0,7.29-7.29A7.3,7.3,0,0,0,141.31,92Zm11.93,14.2a7.91,7.91,0,1,0,7.91-7.9A7.91,7.91,0,0,0,153.24,106.21ZM158,124.6a8.52,8.52,0,1,0,8.51-8.51A8.52,8.52,0,0,0,158,124.6Z" transform="translate(-8.62)"/></svg>